<?xml version="1.0" encoding="UTF-8"?>
<svg xmlns="http://www.w3.org/2000/svg" fill="#0f172a" viewBox="0 0 320 96"  aria-label="ImageKit logo"><path d="M45.427 30.109c-.724-.784-1.085-1.687-1.085-2.892.06-1.145.422-2.048 1.206-2.892.844-.783 1.748-1.204 2.954-1.204 1.206 0 2.05.421 2.834 1.204.845.844 1.267 1.747 1.267 2.892 0 1.205-.483 2.108-1.267 2.892-.844.783-1.808 1.144-2.954 1.144-1.146 0-2.171-.361-2.955-1.144ZM57.186 50.77c-4.1 11.145-19.658 14.157-16.764-.301l3.377-16.325h7.115c-1.628 8.735-2.834 14.036-4.04 20.12-1.206 6.205 6.513 1.627 8.261-3.434l2.05-.06Z"/><path d="M96.14 51.133c-4.1 11.084-18.452 12.65-16.28 1.144.723-3.976 1.567-8.072 2.351-12.59C83.477 33.783 77.87 38.18 76 42.94c-.06.12-.12.18-.18.422-.302 1.626-2.714 15.24-2.956 16.566h-6.693c1.447-8.072 2.532-14.458 3.558-20.06.965-5.482-4.222-2.23-6.332 2.108-.06.06-.06.12-.12.18l-3.558 17.712h-7.116l5.186-25.784h7.115l-.663 3.494c4.1-4.94 11.578-5.542 12 1.506 5.427-7.349 14.714-7.891 12.241 4.217l-.844 4.579c-.422 2.229-.482 2.35-1.266 6.566-.905 4.096 6.03 1.566 7.718-3.374h2.05v.06Z"/><path d="M110.733 38.843c-3.135-5.722-9.226-.18-11.035 8.193-1.99 9.338 1.447 14.157 8.563 4.579l2.472-12.772Zm13.99 12.23c-3.558 9.517-15.919 12.83-16.643 3.975-5.487 8.133-17.246 6.627-16.281-4.036.723-8.313 4.824-16.626 14.05-16.928h13.085l-.422 1.988c-1.628 7.892-2.713 12.47-3.859 18.434-1.146 5.904 6.392 1.446 8.08-3.373l1.99-.06Z"/><path d="M139.739 38.422c-3.136-5.844-9.408-.181-11.277 8.313-2.05 9.578 1.568 14.458 8.684 4.759-.061-.06 2.593-13.072 2.593-13.072Zm8.201-4.579-3.98 19.458c-2.171 11.988-5.669 22.771-20.985 18.434l4.764-4.94c2.592 1.988 4.462 2.229 5.909 1.386l.181-.844 2.352-11.446c-5.729 7.17-16.764 5.362-15.92-5.12 1.025-11.867 7.9-16.566 13.086-16.807.964-.06 1.929-.12 3.015-.12h11.578Zm7.055 13.554c8.14.241 9.105-9.518 7.779-10.542-1.025-.783-3.317.181-5.186 3.133-1.086 1.626-1.99 3.976-2.593 6.867.06.181 0 .422 0 .543Zm15.497 3.615c-4.04 7.41-8.261 9.337-14.171 9.157-9.768-.302-9.889-12.651-5.125-20.241 3.919-6.085 10.613-7.35 13.568-4.88 2.653 2.108 2.713 6.024 1.145 9.096-2.351 4.278-6.633 5.904-11.095 5.723.06 2.47.965 5.362 3.196 6.446 3.98 1.868 8.141-1.265 10.613-5.24 0-.061 1.869-.061 1.869-.061Z"/><path d="M184.543 37.398c-2.412 1.265-5.608 6.024-7.417 8.313l-.543 2.47c.543-.18 1.025-.422 1.447-.603 8.322-3.433 10.553-12.41 6.513-10.18Zm4.583 22.53h-7.357l-5.729-8.856-1.628 8.856h-7.236l7.176-36.084h6.995c-1.206 6.445-2.292 11.385-3.498 17.83 1.749-2.409 4.282-5.42 6.754-6.867 7.357-4.458 9.528 8.434-2.834 13.675l7.357 11.446Zm7.417-29.82c-.724-.783-1.086-1.686-1.086-2.891.06-1.145.422-2.048 1.206-2.892.844-.783 1.749-1.204 2.955-1.204s2.05.421 2.834 1.204c.844.844 1.266 1.747 1.266 2.892 0 1.205-.482 2.108-1.266 2.892-.844.783-1.809 1.144-2.955 1.144-1.206 0-2.17-.361-2.954-1.144Zm11.698 20.663c-4.1 11.145-19.658 14.157-16.764-.301l3.377-16.325h7.116c-1.628 8.735-2.834 14.036-4.04 20.12-1.206 6.205 6.512 1.627 8.261-3.434l2.05-.06Z"/><path d="M222.533 50.892c-4.101 11.024-19.357 13.976-16.463-.181l2.714-13.434h-3.076l1.267-3.132h2.472l1.387-6.687 7.357-1.446-1.628 8.133h4.16l-1.507 3.132h-3.256l-3.438 17.109c-1.206 6.024 6.151 1.566 7.9-3.494h2.111Zm1.929 2.229c.844-.784 1.809-1.205 2.955-1.205 1.146 0 2.11.422 3.015 1.205.784.903 1.206 1.867 1.206 3.012 0 1.144-.422 2.108-1.206 2.951-.905.784-1.869 1.205-3.015 1.205-1.146 0-2.111-.421-2.955-1.205-.784-.843-1.206-1.807-1.206-2.951 0-1.205.422-2.169 1.206-3.012Zm18.03-23.012c-.723-.784-1.085-1.687-1.085-2.892.06-1.145.422-2.048 1.206-2.892.844-.783 1.749-1.204 2.955-1.204s2.05.421 2.834 1.204c.844.844 1.266 1.747 1.266 2.892 0 1.205-.482 2.108-1.266 2.892-.844.783-1.809 1.144-2.955 1.144-1.206 0-2.171-.361-2.955-1.144Zm11.699 20.662c-4.101 11.145-19.658 14.157-16.764-.301l3.377-16.325h7.115c-1.628 8.735-2.834 14.036-4.04 20.12-1.206 6.205 6.513 1.627 8.262-3.434l2.05-.06Z"/><path d="M267.698 46.675c-1.628-.302-3.196-1.024-4.945-2.35l2.714-3.675a7.25 7.25 0 0 0 2.231 1.386c-.844-3.795-4.1-7.229-6.995-3.133-2.593 3.736-4.884 15-.301 17.59 2.472 1.447 6.03-1.083 7.356-9.577v-.241h-.06ZM280 41.434c-2.051 1.867-4.101 3.313-6.151 4.217-1.508 11.746-11.096 16.325-17.186 13.975-4.824-1.747-6.573-6.204-6.03-10.903.542-5 3.558-10.18 8.382-12.952 4.824-2.771 12-3.012 14.472 2.952.422.964.663 2.229.663 3.614 2.051-.542 4.101-1.506 5.729-2.65l.121 1.747Z"/></svg>