<?xml version="1.0" encoding="UTF-8"?>
<svg xmlns="http://www.w3.org/2000/svg" fill="#0f172a" viewBox="0 0 320 96"  aria-label="Momentic logo"><path d="M80.098 60.045V37.48h5.313v2.746h.3c.986-1.716 3.043-3.303 6.128-3.303s5.399 1.33 6.684 3.432h.343c1.543-2.36 3.771-3.432 6.685-3.432 4.971 0 8.227 3.389 8.227 8.15v14.972h-5.57V47.004c0-3.089-1.414-4.847-4.071-4.847-2.528 0-4.37 1.93-4.37 4.976v12.912h-5.571V46.661c0-2.746-1.629-4.505-4.2-4.505-2.485 0-4.328 2.06-4.328 4.934v12.955h-5.57ZM130.059 60.603c-7.07 0-11.998-5.105-11.998-11.84 0-6.692 4.885-11.84 11.998-11.84 7.071 0 11.998 5.148 11.998 11.84s-4.97 11.84-11.998 11.84Zm0-5.062c3.685 0 6.342-2.831 6.342-6.778 0-3.904-2.657-6.778-6.342-6.778-3.728 0-6.342 2.874-6.342 6.778 0 3.99 2.657 6.778 6.342 6.778ZM146.968 60.045V37.48h5.314v2.746h.3c.985-1.716 3.042-3.303 6.127-3.303 3.086 0 5.4 1.33 6.685 3.432h.343c1.543-2.36 3.771-3.432 6.685-3.432 4.97 0 8.227 3.389 8.227 8.15v14.972h-5.571V47.004c0-3.089-1.414-4.847-4.07-4.847-2.529 0-4.371 1.93-4.371 4.976v12.912h-5.571V46.661c0-2.746-1.628-4.505-4.199-4.505-2.486 0-4.328 2.06-4.328 4.934v12.955h-5.571ZM196.287 60.603c-6.642 0-11.355-4.976-11.355-11.712 0-7.12 4.756-11.968 11.355-11.968 7.242 0 11.184 5.362 11.184 11.711v1.759h-17.14c.171 3.432 2.528 5.748 6.128 5.748 2.742 0 4.842-1.287 5.613-3.131h5.185c-1.114 4.59-5.142 7.593-10.97 7.593Zm-5.87-14.157h11.741c-.257-3.045-2.614-5.062-5.871-5.062-3.128 0-5.528 2.231-5.87 5.062ZM212.416 60.045V37.48h5.314v2.746h.299c.9-1.673 3.129-3.303 6.342-3.303 5.057 0 8.142 3.56 8.142 8.365v14.757h-5.571V46.747c0-2.746-1.756-4.59-4.327-4.59-2.7 0-4.628 2.144-4.628 4.976v12.912h-5.571ZM247.963 60.045c-4.67 0-7.498-2.66-7.498-7.507V41.942h-3.814v-4.419h2.528c.986 0 1.628-.643 1.628-1.716V31.26h5.228v6.22h6.214v4.462h-6.214v10.381c0 1.888.943 3.09 3.085 3.09h3v4.632h-4.157ZM259.768 34.478c-2.014 0-3.428-1.244-3.428-3.26 0-1.931 1.414-3.218 3.428-3.218 2.014 0 3.428 1.287 3.428 3.217 0 2.017-1.414 3.26-3.428 3.26Zm-2.785 25.567V37.481h5.57v22.564h-5.57ZM278.609 60.603c-7.07 0-11.784-5.19-11.784-11.84 0-6.65 4.714-11.84 11.784-11.84 5.785 0 10.284 3.56 11.141 8.88h-5.699c-.685-2.23-2.785-3.818-5.399-3.818-3.771 0-6.17 3.003-6.17 6.778 0 3.904 2.528 6.778 6.213 6.778 2.571 0 4.671-1.459 5.313-3.647h5.7c-.858 5.234-5.314 8.709-11.099 8.709ZM59.079 32.029H45.392a6.847 6.847 0 0 0-6.844 6.85v1.707h-1.705A6.847 6.847 0 0 0 30 47.436v9.86c0 1.385.834 2.635 2.113 3.165a3.42 3.42 0 0 0 3.73-.743l4.122-4.126a6.856 6.856 0 0 0 2.005-4.846v-6.735h8.56a3.424 3.424 0 0 1 3.423 3.426v8.572h-6.73a6.84 6.84 0 0 0-4.84 2.007l-4.12 4.125a3.43 3.43 0 0 0-.743 3.735 3.423 3.423 0 0 0 3.163 2.115h9.847a6.848 6.848 0 0 0 6.845-6.852v-1.705h1.704a6.849 6.849 0 0 0 6.844-6.852V38.88a6.848 6.848 0 0 0-6.844-6.851Zm-20.53 18.718c0 .91-.361 1.78-1.003 2.423l-4.124 4.13v-9.863a3.423 3.423 0 0 1 3.422-3.426h1.704v6.736ZM53.952 61.14a3.425 3.425 0 0 1-3.423 3.426H40.68l4.123-4.127a3.422 3.422 0 0 1 2.42-1.004h6.731v1.705Zm8.548-8.557a3.425 3.425 0 0 1-3.422 3.427h-1.704v-8.572a6.848 6.848 0 0 0-6.845-6.851h-8.56V38.88a3.423 3.423 0 0 1 3.422-3.426h13.687A3.424 3.424 0 0 1 62.5 38.88v13.702Z"/></svg>