<?xml version="1.0" encoding="UTF-8"?>
<svg xmlns="http://www.w3.org/2000/svg" fill="#0f172a" viewBox="0 0 320 96"  aria-label="Browserbase logo"><g clip-path="url(#a)"><mask id="b" width="199" height="50" x="61" y="23" maskUnits="userSpaceOnUse"><path fill="#fff" d="M260 23H61v50h199V23Z"/></mask><g mask="url(#b)"><path fill-rule="evenodd" d="M109.5 24.5h-47v47h47v-47ZM61 23v50h50V23H61Z" clip-rule="evenodd"/><path d="M78.959 59.11V36.89h7.618a5.69 5.69 0 0 1 5.715 5.714v1.27c0 1.46-.54 2.825-1.46 3.81a5.735 5.735 0 0 1 2.095 4.444v1.27a5.69 5.69 0 0 1-5.715 5.714h-8.254Zm3.174-3.174h5.08a2.507 2.507 0 0 0 2.54-2.54v-1.27a2.507 2.507 0 0 0-2.54-2.539h-5.08v6.35Zm0-9.523h4.445a2.507 2.507 0 0 0 2.54-2.54v-1.27a2.507 2.507 0 0 0-2.54-2.54h-4.445v6.35ZM124.833 56.333V39.901h5.634a4.208 4.208 0 0 1 4.225 4.226v.939c0 1.08-.399 2.089-1.08 2.817a4.241 4.241 0 0 1 1.55 3.286v.939a4.208 4.208 0 0 1-4.226 4.225h-6.103Zm2.347-2.347h3.756a1.854 1.854 0 0 0 1.878-1.878v-.939a1.853 1.853 0 0 0-1.878-1.878h-3.756v4.695Zm0-7.042h3.287a1.854 1.854 0 0 0 1.878-1.878v-.94a1.854 1.854 0 0 0-1.878-1.877h-3.287v4.695ZM137.603 56.333V44.361h2.347v1.808l2.653-1.808h.681c2.159 0 3.943 1.878 3.943 4.226v.939h-2.347v-.94c0-1.032-.657-1.877-1.596-1.877h-.212l-3.122 2.089v7.535h-2.347ZM152.936 56.333c-2.347 0-4.225-1.854-4.225-4.202v-3.544a4.208 4.208 0 0 1 4.225-4.226h1.878a4.208 4.208 0 0 1 4.226 4.226v3.544c0 2.348-1.878 4.202-4.226 4.202h-1.878Zm-1.877-4.202c0 1.057.821 1.831 1.877 1.855h1.878c1.057 0 1.878-.798 1.878-1.855v-3.544a1.854 1.854 0 0 0-1.878-1.878h-1.878a1.853 1.853 0 0 0-1.877 1.878v3.544ZM163.317 56.333l-2.23-6.573v-5.399h2.348v4.695l1.173 3.733 1.996-6.315h1.925l1.995 6.315 1.174-3.733v-4.695h2.347v5.4l-2.23 6.572h-1.995l-2.254-5.61-2.253 5.61h-1.996ZM179.839 56.333c-2.277 0-3.967-1.479-3.967-3.474v-.47h2.347v.47c0 .751.61 1.291 1.62 1.291h2.136c1.103 0 1.643-.446 1.643-1.127 0-2.652-7.582-.939-7.582-5.493 0-1.901 1.526-3.169 3.756-3.169h2.019c2.112 0 3.755 1.526 3.755 3.498v.211h-2.347v-.211c0-.751-.587-1.315-1.408-1.315h-2.019c-.986 0-1.409.4-1.409.986 0 1.902 7.582.705 7.582 5.493 0 1.972-1.619 3.31-3.99 3.31h-2.136ZM192.068 56.333c-2.324 0-4.226-1.925-4.226-4.249v-3.497a4.223 4.223 0 0 1 4.226-4.226h1.878a4.209 4.209 0 0 1 4.225 3.99v2.536h-7.981v1.197c0 1.033.845 1.878 1.878 1.878h1.878a1.883 1.883 0 0 0 1.878-1.878v-.234h2.347v.234c0 2.324-1.878 4.25-4.225 4.25h-1.878Zm-1.878-7.324h5.634v-.422a1.854 1.854 0 0 0-1.878-1.878h-1.878a1.868 1.868 0 0 0-1.878 1.878v.422ZM200.712 56.333V44.361h2.347v1.808l2.653-1.808h.681c2.159 0 3.943 1.878 3.943 4.226v.939h-2.347v-.94c0-1.032-.657-1.877-1.596-1.877h-.211l-3.123 2.089v7.535h-2.347ZM216.516 56.333l-1.948-1.314v1.314h-2.348V39.667h2.348v6.009l1.948-1.315h1.808a4.222 4.222 0 0 1 4.225 4.226v3.52a4.237 4.237 0 0 1-4.225 4.226h-1.808Zm-1.948-4.155 2.676 1.808h1.08a1.883 1.883 0 0 0 1.878-1.878v-3.521a1.883 1.883 0 0 0-1.878-1.878h-1.08l-2.676 1.807v3.662ZM228.93 56.333a4.238 4.238 0 0 1-4.225-4.225v-3.521a4.222 4.222 0 0 1 4.225-4.226h1.808l1.948 1.315V44.36h2.347v11.972h-2.347V55.02l-1.948 1.314h-1.808Zm-1.878-4.225c0 1.033.845 1.878 1.878 1.878h1.08l2.676-1.808v-3.662l-2.676-1.807h-1.08a1.883 1.883 0 0 0-1.878 1.878v3.52ZM241.343 56.333c-2.277 0-3.967-1.479-3.967-3.474v-.47h2.348v.47c0 .751.61 1.291 1.619 1.291h2.136c1.104 0 1.644-.446 1.644-1.127 0-2.652-7.583-.939-7.583-5.493 0-1.901 1.526-3.169 3.756-3.169h2.019c2.113 0 3.756 1.526 3.756 3.498v.211h-2.347v-.211c0-.751-.587-1.315-1.409-1.315h-2.019c-.986 0-1.408.4-1.408.986 0 1.902 7.582.705 7.582 5.493 0 1.972-1.62 3.31-3.991 3.31h-2.136ZM253.573 56.333c-2.324 0-4.225-1.925-4.225-4.249v-3.497a4.222 4.222 0 0 1 4.225-4.226h1.878a4.21 4.21 0 0 1 4.226 3.99v2.536h-7.982v1.197c0 1.033.845 1.878 1.878 1.878h1.878a1.883 1.883 0 0 0 1.878-1.878v-.234h2.348v.234c0 2.324-1.878 4.25-4.226 4.25h-1.878Zm-1.878-7.324h5.634v-.422a1.854 1.854 0 0 0-1.878-1.878h-1.878a1.869 1.869 0 0 0-1.878 1.878v.422Z"/></g></g><defs><clipPath id="a"><path fill="#fff" d="M0 0h199v50H0z" transform="translate(61 23)"/></clipPath></defs></svg>