<?xml version="1.0" encoding="UTF-8"?>
<svg xmlns="http://www.w3.org/2000/svg" fill="#0f172a" viewBox="0 0 320 96"  aria-label="Greptile logo"><path d="M252.413 60.877q-6.318 0-8.982-3.457-2.707-3.458-2.706-9.535-.001-6.357 2.75-9.643 2.727-3.285 8.851-3.286 6.317 0 8.939 3.286 2.598 3.33 2.598 9.6 0 .88-.106 1.61h-18.543v-3.178h13.407q-.192-4.275-1.59-6.013-1.675-1.911-4.683-1.911-2.943 0-4.77 2.04-1.826 2.018-1.827 7.516.001 5.24 1.784 7.388 1.762 2.19 4.878 2.19zm0-3.393q1.782 0 3.093-.558 1.31-.58 2.02-1.933.71-1.374 1.095-3.092l4.663 1.288q-.387 2.577-1.784 4.317a7.96 7.96 0 0 1-3.545 2.555q-2.127.816-5.542.816zm-18.502 3.178V26.947h5.178v33.717zm-8.458 0v-25.47h5.201v25.47zm0-32.62h5.201v4.187h-5.201zm-8.12 32.921q-2.987 0-5.027-1.288-2.02-1.31-2.019-4.768V38.822h-5.931v-3.608h5.931v-5.777h5.199v5.777h8.249v3.608h-8.249v14.904q0 2.254.944 2.985.946.73 2.644.73a9.4 9.4 0 0 0 3.072-.515v3.479a20.3 20.3 0 0 1-4.813.558m-35.205 9.213V35.214h4.039l1.139 4.23v30.732zm13.3-9.363q-4.276 0-7.327-2.083-3.051-2.105-3.051-4.446l2.256-2.577q0 2.212 1.869 3.887 1.891 1.654 4.469 1.654 2.75 0 4.297-1.954 1.547-1.977 1.547-7.388 0-5.39-1.547-7.344-1.546-1.976-4.297-1.976-2.578 0-4.469 1.653-1.869 1.654-1.869 3.823l-2.256-2.513q0-2.362 3.051-4.466 3.05-2.105 7.327-2.105 4.747 0 7.026 3.286 2.277 3.285 2.277 9.62 0 6.315-2.277 9.622-2.28 3.307-7.026 3.307m-26.306.064q-6.316 0-8.981-3.457-2.706-3.458-2.707-9.535 0-6.357 2.75-9.643 2.729-3.285 8.852-3.286 6.318 0 8.938 3.286 2.6 3.33 2.6 9.6a11 11 0 0 1-.107 1.61h-18.542v-3.178h13.407q-.193-4.275-1.59-6.013-1.677-1.911-4.684-1.911-2.943 0-4.77 2.04-1.826 2.017-1.826 7.516 0 5.24 1.783 7.388 1.762 2.19 4.877 2.19zm0-3.393q1.783 0 3.094-.558 1.31-.58 2.02-1.933.709-1.374 1.096-3.092l4.662 1.288q-.387 2.577-1.783 4.317a7.96 7.96 0 0 1-3.545 2.555q-2.128.816-5.544.816zm-17.563-10.222q0-5.111-1.203-6.872-1.203-1.783-3.502-1.783-2.622 0-4.147 1.783-1.503 1.76-1.504 3.994l-1.998-1.331q0-3.372 2.6-5.713 2.621-2.362 6.961-2.362 4.555 0 6.274 2.963 1.719 2.943 1.719 9.32zm-15.512 13.4V35.215h4.039l1.139 4.768v20.68zM122.484 70.67q-4.319 0-7.326-1.933-3.008-1.911-3.373-6.593h5.07q.172 1.869.881 3.007a4.2 4.2 0 0 0 1.998 1.654q1.29.536 2.922.536 2.708 0 4.34-1.417 1.655-1.396 1.655-5.691V40.368l1.353-5.154h3.846V59.74q0 4.188-1.568 6.572-1.548 2.405-3.932 3.371-2.364.988-5.866.988m-1.847-9.857q-4.748 0-7.091-3.264-2.32-3.286-2.32-9.664t2.299-9.643 7.069-3.264q4.275 0 7.283 2.169 3.03 2.148 3.03 4.51l-2.278 2.405q0-2.169-1.847-3.823-1.848-1.653-4.427-1.653-2.728 0-4.318 1.954-1.569 1.933-1.569 7.366t1.569 7.388q1.59 1.953 4.318 1.954 2.579 0 4.427-1.675t1.847-3.866l2.299 2.577q0 2.406-3.008 4.467-2.987 2.062-7.283 2.062M84.599 28.927l-8.75 7.875-6.046 5.167 7.781 7.275 8.148-6.964-6.31-5.899 6.7-6.03 13.039 12.19L77.275 61.25l-20.9-19.541L78.26 23zM78.38 63.04l21.242-18.456v9.93L78.38 72.968zM56 43.816l20.584 19.186v9.929L56 53.745z"/></svg>